<mxfile host="app.diagrams.net" modified="2024-02-23T08:54:38.220Z" agent="Mozilla/5.0 (Windows NT 10.0; Win64; x64) AppleWebKit/537.36 (KHTML, like Gecko) Chrome/121.0.0.0 Safari/537.36" etag="ACgPBcT6goSLM8Wg63vz" version="23.1.5" type="github">
  <diagram name="Page-1" id="2YBvvXClWsGukQMizWep">
    <mxGraphModel dx="7672" dy="4416" grid="1" gridSize="10" guides="1" tooltips="1" connect="1" arrows="1" fold="1" page="1" pageScale="1" pageWidth="850" pageHeight="1100" math="0" shadow="0">
      <root>
        <mxCell id="0" />
        <mxCell id="1" parent="0" />
        <mxCell id="5xeuYwTMl6cgXFdO7Lpt-63" value="ACCOUNTING" style="rounded=0;whiteSpace=wrap;html=1;verticalAlign=top;fontSize=14;fontStyle=1;dashed=1;dashPattern=8 8;" vertex="1" parent="1">
          <mxGeometry x="-370" y="880" width="2730" height="2960" as="geometry" />
        </mxCell>
        <mxCell id="5xeuYwTMl6cgXFdO7Lpt-64" value="TASK MANAGEMENT" style="rounded=0;whiteSpace=wrap;html=1;verticalAlign=top;fontSize=14;fontStyle=1;dashed=1;dashPattern=8 8;" vertex="1" parent="1">
          <mxGeometry x="-1660" y="1380" width="1150" height="1980" as="geometry" />
        </mxCell>
        <mxCell id="5xeuYwTMl6cgXFdO7Lpt-62" value="AUTH" style="rounded=0;whiteSpace=wrap;html=1;verticalAlign=top;fontSize=14;fontStyle=1;dashed=1;dashPattern=8 8;" vertex="1" parent="1">
          <mxGeometry x="-1670" y="720" width="1150" height="590" as="geometry" />
        </mxCell>
        <mxCell id="5xeuYwTMl6cgXFdO7Lpt-1" value="Любой пользователь" style="html=1;overflow=block;blockSpacing=1;whiteSpace=wrap;shadow=1;fontSize=20.2;fontColor=#3a414a;spacing=9;strokeColor=none;fillColor=#FFECA9;strokeWidth=0;lucidId=Y5sdSMppsCrE;" vertex="1" parent="1">
          <mxGeometry x="-1333" y="1485" width="180" height="180" as="geometry" />
        </mxCell>
        <mxCell id="5xeuYwTMl6cgXFdO7Lpt-2" value="Создать задачу" style="html=1;overflow=block;blockSpacing=1;whiteSpace=wrap;shadow=1;fontSize=20.2;fontColor=#3a414a;spacing=9;strokeColor=none;fillOpacity=100;fillColor=#6db1ff;strokeWidth=0;lucidId=e8sdozxfh3y~;" vertex="1" parent="1">
          <mxGeometry x="-1138" y="1485" width="180" height="180" as="geometry" />
        </mxCell>
        <mxCell id="5xeuYwTMl6cgXFdO7Lpt-3" value="Назначить задачи" style="html=1;overflow=block;blockSpacing=1;whiteSpace=wrap;shadow=1;fontSize=20.2;fontColor=#3a414a;spacing=9;strokeColor=none;fillOpacity=100;fillColor=#6db1ff;strokeWidth=0;lucidId=u8sdfDJfTyED;" vertex="1" parent="1">
          <mxGeometry x="-1139" y="2205" width="180" height="180" as="geometry" />
        </mxCell>
        <mxCell id="5xeuYwTMl6cgXFdO7Lpt-4" value="Требуется назначение цены для новой задачи" style="html=1;overflow=block;blockSpacing=1;whiteSpace=wrap;shadow=1;fontSize=20.2;fontColor=#3a414a;spacing=9;strokeColor=none;fillOpacity=100;fillColor=#e08fff;strokeWidth=0;lucidId=59sdOw9QuD~H;" vertex="1" parent="1">
          <mxGeometry x="-238" y="1485" width="180" height="180" as="geometry" />
        </mxCell>
        <mxCell id="5xeuYwTMl6cgXFdO7Lpt-5" value="Задача создана" style="html=1;overflow=block;blockSpacing=1;whiteSpace=wrap;shadow=1;fontSize=20.2;fontColor=#3a414a;spacing=9;strokeColor=none;fillOpacity=100;fillColor=#fc9432;strokeWidth=0;lucidId=K5sdoyAFS1~Y;" vertex="1" parent="1">
          <mxGeometry x="-943" y="1485" width="180" height="180" as="geometry" />
        </mxCell>
        <mxCell id="5xeuYwTMl6cgXFdO7Lpt-6" value="Задача  назначена на пользователя" style="html=1;overflow=block;blockSpacing=1;whiteSpace=wrap;shadow=1;fontSize=20.2;fontColor=#3a414a;spacing=9;strokeColor=none;fillOpacity=100;fillColor=#fc9432;strokeWidth=0;lucidId=Z6sdp1kKHVXV;" vertex="1" parent="1">
          <mxGeometry x="-944" y="2205" width="180" height="180" as="geometry" />
        </mxCell>
        <mxCell id="5xeuYwTMl6cgXFdO7Lpt-7" value="" style="html=1;jettySize=18;whiteSpace=wrap;fontSize=13;strokeColor=#3a414a;strokeOpacity=100;strokeWidth=0.8;rounded=1;arcSize=12;edgeStyle=orthogonalEdgeStyle;startArrow=none;endArrow=block;endFill=1;exitX=1;exitY=0.5;exitPerimeter=0;entryX=0;entryY=0.5;entryPerimeter=0;lucidId=W-sddjJOflag;" edge="1" parent="1" source="5xeuYwTMl6cgXFdO7Lpt-5" target="5xeuYwTMl6cgXFdO7Lpt-4">
          <mxGeometry width="100" height="100" relative="1" as="geometry">
            <Array as="points" />
          </mxGeometry>
        </mxCell>
        <mxCell id="5xeuYwTMl6cgXFdO7Lpt-8" value="" style="html=1;jettySize=18;whiteSpace=wrap;fontSize=13;strokeColor=#3a414a;strokeOpacity=100;strokeWidth=0.8;rounded=1;arcSize=12;curved=1;startArrow=none;endArrow=block;endFill=1;lucidId=Q.sdw~qC7hhH;" edge="1" parent="1" source="5xeuYwTMl6cgXFdO7Lpt-5" target="5xeuYwTMl6cgXFdO7Lpt-55">
          <mxGeometry width="100" height="100" relative="1" as="geometry">
            <Array as="points">
              <mxPoint x="-667" y="1800" />
              <mxPoint x="-1436" y="1770" />
              <mxPoint x="-1590" y="1970" />
              <mxPoint x="-1600" y="2210" />
            </Array>
            <mxPoint x="-667" y="1700" as="sourcePoint" />
            <mxPoint x="-1148" y="2525" as="targetPoint" />
          </mxGeometry>
        </mxCell>
        <mxCell id="5xeuYwTMl6cgXFdO7Lpt-9" value="Списать деньги у пользователя" style="html=1;overflow=block;blockSpacing=1;whiteSpace=wrap;shadow=1;fontSize=20.2;fontColor=#3a414a;spacing=9;strokeColor=none;fillOpacity=100;fillColor=#6db1ff;strokeWidth=0;lucidId=0~sdsx6s6JRE;" vertex="1" parent="1">
          <mxGeometry x="-42" y="2205" width="180" height="180" as="geometry" />
        </mxCell>
        <mxCell id="5xeuYwTMl6cgXFdO7Lpt-10" value="При назначении задачи у пользователя списываются денньги" style="html=1;overflow=block;blockSpacing=1;whiteSpace=wrap;shadow=1;fontSize=20.2;fontColor=#3a414a;spacing=9;strokeColor=none;fillOpacity=100;fillColor=#e08fff;strokeWidth=0;lucidId=XatdZE._-kMl;" vertex="1" parent="1">
          <mxGeometry x="-237" y="2205" width="180" height="180" as="geometry" />
        </mxCell>
        <mxCell id="5xeuYwTMl6cgXFdO7Lpt-11" value="" style="html=1;jettySize=18;whiteSpace=wrap;fontSize=13;strokeColor=#3a414a;strokeOpacity=100;strokeWidth=0.8;rounded=1;arcSize=12;edgeStyle=orthogonalEdgeStyle;startArrow=none;endArrow=block;endFill=1;exitX=1;exitY=0.5;exitPerimeter=0;entryX=0;entryY=0.5;entryPerimeter=0;lucidId=obtdv.SQsKj.;" edge="1" parent="1" source="5xeuYwTMl6cgXFdO7Lpt-6" target="5xeuYwTMl6cgXFdO7Lpt-10">
          <mxGeometry width="100" height="100" relative="1" as="geometry">
            <Array as="points" />
          </mxGeometry>
        </mxCell>
        <mxCell id="5xeuYwTMl6cgXFdO7Lpt-12" value="Администратор" style="html=1;overflow=block;blockSpacing=1;whiteSpace=wrap;shadow=1;fontSize=20.2;fontColor=#3a414a;spacing=9;strokeColor=none;fillColor=#FFECA9;strokeWidth=0;lucidId=H6sdhHGTvl1M;" vertex="1" parent="1">
          <mxGeometry x="-1334" y="2205" width="180" height="180" as="geometry" />
        </mxCell>
        <mxCell id="5xeuYwTMl6cgXFdO7Lpt-13" value="Менеджер" style="html=1;overflow=block;blockSpacing=1;whiteSpace=wrap;shadow=1;fontSize=20.2;fontColor=#3a414a;spacing=9;strokeColor=none;fillColor=#FFECA9;strokeWidth=0;lucidId=w6sdW30t9qtF;" vertex="1" parent="1">
          <mxGeometry x="-1334" y="2010" width="180" height="180" as="geometry" />
        </mxCell>
        <mxCell id="5xeuYwTMl6cgXFdO7Lpt-14" value="Новая задача должна быть назначена на пользователя" style="html=1;overflow=block;blockSpacing=1;whiteSpace=wrap;shadow=1;fontSize=20.2;fontColor=#3a414a;spacing=9;strokeColor=none;fillOpacity=100;fillColor=#e08fff;strokeWidth=0;lucidId=c.sdQ9w~JKvh;" vertex="1" parent="1">
          <mxGeometry x="-1334" y="2400" width="180" height="180" as="geometry" />
        </mxCell>
        <mxCell id="5xeuYwTMl6cgXFdO7Lpt-15" value="Любой пользователь" style="html=1;overflow=block;blockSpacing=1;whiteSpace=wrap;shadow=1;fontSize=20.2;fontColor=#3a414a;spacing=9;strokeColor=none;fillColor=#FFECA9;strokeWidth=0;lucidId=O7sduSYtx9eR;" vertex="1" parent="1">
          <mxGeometry x="-1334" y="2985" width="180" height="180" as="geometry" />
        </mxCell>
        <mxCell id="5xeuYwTMl6cgXFdO7Lpt-16" value="Выполнить задачу" style="html=1;overflow=block;blockSpacing=1;whiteSpace=wrap;shadow=1;fontSize=20.2;fontColor=#3a414a;spacing=9;strokeColor=none;fillOpacity=100;fillColor=#6db1ff;strokeWidth=0;lucidId=N8sdA~5B1Ccx;" vertex="1" parent="1">
          <mxGeometry x="-1139" y="2985" width="180" height="180" as="geometry" />
        </mxCell>
        <mxCell id="5xeuYwTMl6cgXFdO7Lpt-17" value="Задача выполнена" style="html=1;overflow=block;blockSpacing=1;whiteSpace=wrap;shadow=1;fontSize=20.2;fontColor=#3a414a;spacing=9;strokeColor=none;fillOpacity=100;fillColor=#fc9432;strokeWidth=0;lucidId=V7sdBdXE~8tT;" vertex="1" parent="1">
          <mxGeometry x="-944" y="2985" width="180" height="180" as="geometry" />
        </mxCell>
        <mxCell id="5xeuYwTMl6cgXFdO7Lpt-18" value="У пользователя списано за назначение " style="html=1;overflow=block;blockSpacing=1;whiteSpace=wrap;fontSize=20;fontColor=#3a414a;spacing=9;strokeColor=none;fillOpacity=100;fillColor=#fc9432;strokeWidth=0;lucidId=b_sd0X1bol35;" vertex="1" parent="1">
          <mxGeometry x="153" y="2205" width="180" height="180" as="geometry" />
        </mxCell>
        <mxCell id="5xeuYwTMl6cgXFdO7Lpt-19" value="Назначить цену задачи" style="html=1;overflow=block;blockSpacing=1;whiteSpace=wrap;shadow=1;fontSize=20.2;fontColor=#3a414a;spacing=9;strokeColor=none;fillOpacity=100;fillColor=#6db1ff;strokeWidth=0;lucidId=v-sd3DbSeRmD;" vertex="1" parent="1">
          <mxGeometry x="-43" y="1485" width="180" height="180" as="geometry" />
        </mxCell>
        <mxCell id="5xeuYwTMl6cgXFdO7Lpt-20" value="Установлена цена задачи" style="html=1;overflow=block;blockSpacing=1;whiteSpace=wrap;shadow=1;fontSize=20.2;fontColor=#3a414a;spacing=9;strokeColor=none;fillOpacity=100;fillColor=#fc9432;strokeWidth=0;lucidId=29sdK~UAmkuS;" vertex="1" parent="1">
          <mxGeometry x="152" y="1485" width="180" height="180" as="geometry" />
        </mxCell>
        <mxCell id="5xeuYwTMl6cgXFdO7Lpt-21" value="Добавлен новый пользователь" style="html=1;overflow=block;blockSpacing=1;whiteSpace=wrap;shadow=1;fontSize=20.2;fontColor=#3a414a;spacing=9;strokeColor=none;fillOpacity=100;fillColor=#fc9432;strokeWidth=0;lucidId=w7lccpnknQIs;" vertex="1" parent="1">
          <mxGeometry x="-946" y="1005" width="180" height="180" as="geometry" />
        </mxCell>
        <mxCell id="5xeuYwTMl6cgXFdO7Lpt-22" value="Добавить нового пользователя" style="html=1;overflow=block;blockSpacing=1;whiteSpace=wrap;shadow=1;fontSize=20.2;fontColor=#3a414a;spacing=9;strokeColor=none;fillOpacity=100;fillColor=#6db1ff;strokeWidth=0;lucidId=FftdpVdV0hjM;" vertex="1" parent="1">
          <mxGeometry x="-1140" y="1005" width="180" height="180" as="geometry" />
        </mxCell>
        <mxCell id="5xeuYwTMl6cgXFdO7Lpt-23" value="Администратор" style="html=1;overflow=block;blockSpacing=1;whiteSpace=wrap;shadow=1;fontSize=20.2;fontColor=#3a414a;spacing=9;strokeColor=none;fillColor=#FFECA9;strokeWidth=0;lucidId=2ftdIzJpN.xA;" vertex="1" parent="1">
          <mxGeometry x="-1334" y="1005" width="180" height="180" as="geometry" />
        </mxCell>
        <mxCell id="5xeuYwTMl6cgXFdO7Lpt-24" value="Создан счет пользователя" style="html=1;overflow=block;blockSpacing=1;whiteSpace=wrap;shadow=1;fontSize=20.2;fontColor=#3a414a;spacing=9;strokeColor=none;fillOpacity=100;fillColor=#fc9432;strokeWidth=0;lucidId=.ftdpbNIV6f9;" vertex="1" parent="1">
          <mxGeometry x="151" y="1005" width="180" height="180" as="geometry" />
        </mxCell>
        <mxCell id="5xeuYwTMl6cgXFdO7Lpt-25" value="Для пользователя должен быть создан счет" style="html=1;overflow=block;blockSpacing=1;whiteSpace=wrap;shadow=1;fontSize=20.2;fontColor=#3a414a;spacing=9;strokeColor=none;fillOpacity=100;fillColor=#e08fff;strokeWidth=0;lucidId=rgtdr_eY.rsk;" vertex="1" parent="1">
          <mxGeometry x="-239" y="1005" width="180" height="180" as="geometry" />
        </mxCell>
        <mxCell id="5xeuYwTMl6cgXFdO7Lpt-26" value="Создать счет новому пользователю" style="html=1;overflow=block;blockSpacing=1;whiteSpace=wrap;shadow=1;fontSize=20.2;fontColor=#3a414a;spacing=9;strokeColor=none;fillOpacity=100;fillColor=#6db1ff;strokeWidth=0;lucidId=NgtdBUwuUT8h;" vertex="1" parent="1">
          <mxGeometry x="-47" y="1005" width="180" height="180" as="geometry" />
        </mxCell>
        <mxCell id="5xeuYwTMl6cgXFdO7Lpt-27" value="" style="html=1;jettySize=18;whiteSpace=wrap;fontSize=13;strokeColor=#3a414a;strokeOpacity=100;strokeWidth=0.8;rounded=1;arcSize=12;edgeStyle=orthogonalEdgeStyle;startArrow=none;endArrow=block;endFill=1;exitX=1;exitY=0.5;exitPerimeter=0;entryX=0;entryY=0.5;entryPerimeter=0;lucidId=UgtdlBc.qNj3;" edge="1" parent="1" source="5xeuYwTMl6cgXFdO7Lpt-21" target="5xeuYwTMl6cgXFdO7Lpt-25">
          <mxGeometry width="100" height="100" relative="1" as="geometry">
            <Array as="points" />
          </mxGeometry>
        </mxCell>
        <mxCell id="5xeuYwTMl6cgXFdO7Lpt-29" value="Начислить деньги за выполненую задачу" style="html=1;overflow=block;blockSpacing=1;whiteSpace=wrap;shadow=1;fontSize=20.2;fontColor=#3a414a;spacing=9;strokeColor=none;fillOpacity=100;fillColor=#6db1ff;strokeWidth=0;lucidId=xotdiShkehL7;" vertex="1" parent="1">
          <mxGeometry x="-42" y="2985" width="180" height="180" as="geometry" />
        </mxCell>
        <mxCell id="5xeuYwTMl6cgXFdO7Lpt-30" value="При выполнении задачи пользователю назначаются деньги" style="html=1;overflow=block;blockSpacing=1;whiteSpace=wrap;shadow=1;fontSize=20.2;fontColor=#3a414a;spacing=9;strokeColor=none;fillOpacity=100;fillColor=#e08fff;strokeWidth=0;lucidId=xotdYUFTLhQf;" vertex="1" parent="1">
          <mxGeometry x="-237" y="2985" width="180" height="180" as="geometry" />
        </mxCell>
        <mxCell id="5xeuYwTMl6cgXFdO7Lpt-31" value="Пользователю начислены деньги за выполненную задачу" style="html=1;overflow=block;blockSpacing=1;whiteSpace=wrap;fontSize=20;fontColor=#3a414a;spacing=9;strokeColor=none;fillOpacity=100;fillColor=#fc9432;strokeWidth=0;lucidId=xotdiB_aE42B;" vertex="1" parent="1">
          <mxGeometry x="153" y="2985" width="180" height="180" as="geometry" />
        </mxCell>
        <mxCell id="5xeuYwTMl6cgXFdO7Lpt-33" value="" style="html=1;jettySize=18;whiteSpace=wrap;fontSize=13;strokeColor=#3a414a;strokeOpacity=100;strokeWidth=0.8;rounded=1;arcSize=12;curved=1;startArrow=none;endArrow=block;endFill=1;exitX=0.5;exitY=1;exitPerimeter=0;entryX=0.5;entryY=0;entryPerimeter=0;lucidId=8rtdVQZIBTqa;" edge="1" parent="1" source="5xeuYwTMl6cgXFdO7Lpt-6" target="5xeuYwTMl6cgXFdO7Lpt-52">
          <mxGeometry width="100" height="100" relative="1" as="geometry">
            <Array as="points">
              <mxPoint x="-854" y="2567" />
              <mxPoint x="-869" y="2721" />
              <mxPoint x="-1095" y="2782" />
              <mxPoint x="-1451" y="2868" />
            </Array>
          </mxGeometry>
        </mxCell>
        <mxCell id="5xeuYwTMl6cgXFdO7Lpt-34" value="" style="html=1;jettySize=18;whiteSpace=wrap;fontSize=13;strokeColor=#3a414a;strokeOpacity=100;strokeWidth=0.8;rounded=1;arcSize=12;edgeStyle=orthogonalEdgeStyle;startArrow=none;endArrow=block;endFill=1;exitX=1;exitY=0.5;exitPerimeter=0;entryX=0;entryY=0.5;entryPerimeter=0;lucidId=WstdmZa8cbGW;" edge="1" parent="1" source="5xeuYwTMl6cgXFdO7Lpt-17" target="5xeuYwTMl6cgXFdO7Lpt-30">
          <mxGeometry width="100" height="100" relative="1" as="geometry">
            <Array as="points" />
          </mxGeometry>
        </mxCell>
        <mxCell id="5xeuYwTMl6cgXFdO7Lpt-35" value="В конце дня должен  расчитываться баланс" style="html=1;overflow=block;blockSpacing=1;whiteSpace=wrap;shadow=1;fontSize=20.2;fontColor=#3a414a;spacing=9;strokeColor=none;fillOpacity=100;fillColor=#e08fff;strokeWidth=0;lucidId=avtdv6NrMhQt;" vertex="1" parent="1">
          <mxGeometry x="-237" y="3375" width="180" height="180" as="geometry" />
        </mxCell>
        <mxCell id="5xeuYwTMl6cgXFdO7Lpt-36" value="Расчитать баланс пользователей" style="html=1;overflow=block;blockSpacing=1;whiteSpace=wrap;shadow=1;fontSize=20.2;fontColor=#3a414a;spacing=9;strokeColor=none;fillOpacity=100;fillColor=#6db1ff;strokeWidth=0;lucidId=fwtda7MYzQPe;" vertex="1" parent="1">
          <mxGeometry x="-42" y="3375" width="180" height="180" as="geometry" />
        </mxCell>
        <mxCell id="5xeuYwTMl6cgXFdO7Lpt-37" value="Получен положительный баланс" style="html=1;overflow=block;blockSpacing=1;whiteSpace=wrap;fontSize=20;fontColor=#3a414a;spacing=9;strokeColor=none;fillOpacity=100;fillColor=#fc9432;strokeWidth=0;lucidId=DvtdAZ4oR~-m;" vertex="1" parent="1">
          <mxGeometry x="150" y="3300" width="180" height="180" as="geometry" />
        </mxCell>
        <mxCell id="5xeuYwTMl6cgXFdO7Lpt-38" value="Получен отрицательный баланс" style="html=1;overflow=block;blockSpacing=1;whiteSpace=wrap;fontSize=20;fontColor=#3a414a;spacing=9;strokeColor=none;fillOpacity=100;fillColor=#fc9432;strokeWidth=0;lucidId=SwtdSD1~ZDL3;" vertex="1" parent="1">
          <mxGeometry x="153" y="3495" width="180" height="180" as="geometry" />
        </mxCell>
        <mxCell id="5xeuYwTMl6cgXFdO7Lpt-39" value="При положительном балансе он должен отправляться пользователю" style="html=1;overflow=block;blockSpacing=1;whiteSpace=wrap;shadow=1;fontSize=20.2;fontColor=#3a414a;spacing=9;strokeColor=none;fillOpacity=100;fillColor=#e08fff;strokeWidth=0;lucidId=hxtd.WZk7JJ6;" vertex="1" parent="1">
          <mxGeometry x="645" y="3300" width="180" height="180" as="geometry" />
        </mxCell>
        <mxCell id="5xeuYwTMl6cgXFdO7Lpt-40" value="" style="html=1;jettySize=18;whiteSpace=wrap;fontSize=13;strokeColor=#3a414a;strokeOpacity=100;strokeWidth=0.8;rounded=1;arcSize=12;edgeStyle=orthogonalEdgeStyle;startArrow=none;endArrow=block;endFill=1;exitX=1;exitY=0.5;exitPerimeter=0;entryX=0;entryY=0.5;entryPerimeter=0;lucidId=Uxtd_bjRsXoG;" edge="1" parent="1" source="5xeuYwTMl6cgXFdO7Lpt-37" target="5xeuYwTMl6cgXFdO7Lpt-39">
          <mxGeometry width="100" height="100" relative="1" as="geometry">
            <Array as="points" />
          </mxGeometry>
        </mxCell>
        <mxCell id="5xeuYwTMl6cgXFdO7Lpt-41" value="Отправить пользователю сумму выплаты" style="html=1;overflow=block;blockSpacing=1;whiteSpace=wrap;shadow=1;fontSize=20.2;fontColor=#3a414a;spacing=9;strokeColor=none;fillOpacity=100;fillColor=#6db1ff;strokeWidth=0;lucidId=iytdeElC.dPu;" vertex="1" parent="1">
          <mxGeometry x="840" y="3300" width="180" height="180" as="geometry" />
        </mxCell>
        <mxCell id="5xeuYwTMl6cgXFdO7Lpt-42" value="Пользователь проинформирован о выплатах" style="html=1;overflow=block;blockSpacing=1;whiteSpace=wrap;fontSize=20;fontColor=#3a414a;spacing=9;strokeColor=none;fillOpacity=100;fillColor=#fc9432;strokeWidth=0;lucidId=WxtdtH3Tg~ns;" vertex="1" parent="1">
          <mxGeometry x="1230" y="3300" width="180" height="180" as="geometry" />
        </mxCell>
        <mxCell id="5xeuYwTMl6cgXFdO7Lpt-43" value="Электронная почта" style="html=1;overflow=block;blockSpacing=1;whiteSpace=wrap;shadow=1;fontSize=20.2;fontColor=#3a414a;spacing=9;strokeColor=none;fillOpacity=100;fillColor=#ffd6f5;strokeWidth=0;lucidId=Nytdt20hrM~E;" vertex="1" parent="1">
          <mxGeometry x="1035" y="3300" width="180" height="180" as="geometry" />
        </mxCell>
        <mxCell id="5xeuYwTMl6cgXFdO7Lpt-44" value="Положительный баланс должен обнуляться" style="html=1;overflow=block;blockSpacing=1;whiteSpace=wrap;shadow=1;fontSize=20.2;fontColor=#3a414a;spacing=9;strokeColor=none;fillOpacity=100;fillColor=#e08fff;strokeWidth=0;lucidId=IBtdD2m~HWTo;" vertex="1" parent="1">
          <mxGeometry x="1650" y="3300" width="180" height="180" as="geometry" />
        </mxCell>
        <mxCell id="5xeuYwTMl6cgXFdO7Lpt-45" value="" style="html=1;jettySize=18;whiteSpace=wrap;fontSize=13;strokeColor=#3a414a;strokeOpacity=100;strokeWidth=0.8;rounded=1;arcSize=12;edgeStyle=orthogonalEdgeStyle;startArrow=none;endArrow=block;endFill=1;exitX=1;exitY=0.5;exitPerimeter=0;entryX=0;entryY=0.5;entryPerimeter=0;lucidId=dCtdFGwSykyt;" edge="1" parent="1" source="5xeuYwTMl6cgXFdO7Lpt-42" target="5xeuYwTMl6cgXFdO7Lpt-44">
          <mxGeometry width="100" height="100" relative="1" as="geometry">
            <Array as="points" />
          </mxGeometry>
        </mxCell>
        <mxCell id="5xeuYwTMl6cgXFdO7Lpt-46" value="Обнулить баланс" style="html=1;overflow=block;blockSpacing=1;whiteSpace=wrap;shadow=1;fontSize=20.2;fontColor=#3a414a;spacing=9;strokeColor=none;fillOpacity=100;fillColor=#6db1ff;strokeWidth=0;lucidId=fCtdPdL3ip5A;" vertex="1" parent="1">
          <mxGeometry x="1845" y="3300" width="180" height="180" as="geometry" />
        </mxCell>
        <mxCell id="5xeuYwTMl6cgXFdO7Lpt-47" value="Баланс обнулен" style="html=1;overflow=block;blockSpacing=1;whiteSpace=wrap;fontSize=20;fontColor=#3a414a;spacing=9;strokeColor=none;fillOpacity=100;fillColor=#fc9432;strokeWidth=0;lucidId=xCtdwIibitxT;" vertex="1" parent="1">
          <mxGeometry x="2040" y="3300" width="180" height="180" as="geometry" />
        </mxCell>
        <mxCell id="5xeuYwTMl6cgXFdO7Lpt-48" value="Отрицательный баланс должен быть перенесен на следующий день" style="html=1;overflow=block;blockSpacing=1;whiteSpace=wrap;shadow=1;fontSize=20.2;fontColor=#3a414a;spacing=9;strokeColor=none;fillOpacity=100;fillColor=#e08fff;strokeWidth=0;lucidId=sQtdFBoY_NFF;" vertex="1" parent="1">
          <mxGeometry x="1650" y="3495" width="180" height="180" as="geometry" />
        </mxCell>
        <mxCell id="5xeuYwTMl6cgXFdO7Lpt-49" value="Перенести отрицательный баланс" style="html=1;overflow=block;blockSpacing=1;whiteSpace=wrap;shadow=1;fontSize=20.2;fontColor=#3a414a;spacing=9;strokeColor=none;fillOpacity=100;fillColor=#6db1ff;strokeWidth=0;lucidId=1Qtd19x3jNc8;" vertex="1" parent="1">
          <mxGeometry x="1845" y="3495" width="180" height="180" as="geometry" />
        </mxCell>
        <mxCell id="5xeuYwTMl6cgXFdO7Lpt-50" value="Баланс перенесен" style="html=1;overflow=block;blockSpacing=1;whiteSpace=wrap;fontSize=20;fontColor=#3a414a;spacing=9;strokeColor=none;fillOpacity=100;fillColor=#fc9432;strokeWidth=0;lucidId=4QtdB_IuFC53;" vertex="1" parent="1">
          <mxGeometry x="2040" y="3495" width="180" height="180" as="geometry" />
        </mxCell>
        <mxCell id="5xeuYwTMl6cgXFdO7Lpt-51" value="" style="html=1;jettySize=18;whiteSpace=wrap;fontSize=13;strokeColor=#3a414a;strokeOpacity=100;strokeWidth=0.8;rounded=1;arcSize=12;edgeStyle=orthogonalEdgeStyle;startArrow=none;endArrow=block;endFill=1;exitX=1;exitY=0.5;exitPerimeter=0;entryX=0;entryY=0.5;entryPerimeter=0;lucidId=tRtdZpzcdZGl;" edge="1" parent="1" source="5xeuYwTMl6cgXFdO7Lpt-38" target="5xeuYwTMl6cgXFdO7Lpt-48">
          <mxGeometry width="100" height="100" relative="1" as="geometry">
            <Array as="points" />
          </mxGeometry>
        </mxCell>
        <mxCell id="5xeuYwTMl6cgXFdO7Lpt-52" value="Назначенные задачи" style="html=1;overflow=block;blockSpacing=1;whiteSpace=wrap;shadow=1;fontSize=20.2;fontColor=#3a414a;spacing=9;strokeColor=none;fillOpacity=100;fillColor=#54c45e;strokeWidth=0;lucidId=yrtdIEtXq.MM;" vertex="1" parent="1">
          <mxGeometry x="-1529" y="2985" width="180" height="180" as="geometry" />
        </mxCell>
        <mxCell id="5xeuYwTMl6cgXFdO7Lpt-55" value="Невыполненные задачи" style="html=1;overflow=block;blockSpacing=1;whiteSpace=wrap;shadow=1;fontSize=20.2;fontColor=#3a414a;spacing=9;strokeColor=none;fillOpacity=100;fillColor=#54c45e;strokeWidth=0;lucidId=tBudZ0P7r6Yd;" vertex="1" parent="1">
          <mxGeometry x="-1529" y="2100" width="180" height="180" as="geometry" />
        </mxCell>
        <mxCell id="5xeuYwTMl6cgXFdO7Lpt-56" value="" style="html=1;jettySize=18;whiteSpace=wrap;fontSize=13;strokeColor=#3a414a;strokeOpacity=100;strokeWidth=0.8;rounded=1;arcSize=12;curved=1;startArrow=none;endArrow=block;endFill=1;exitX=0.5;exitY=0;exitPerimeter=0;entryX=0.5;entryY=0;entryPerimeter=0;lucidId=2Bud~1hIGCoE;" edge="1" parent="1" source="5xeuYwTMl6cgXFdO7Lpt-6" target="5xeuYwTMl6cgXFdO7Lpt-55">
          <mxGeometry width="100" height="100" relative="1" as="geometry">
            <Array as="points">
              <mxPoint x="-896" y="1982" />
              <mxPoint x="-1308" y="1779" />
            </Array>
          </mxGeometry>
        </mxCell>
        <mxCell id="5xeuYwTMl6cgXFdO7Lpt-57" value="" style="html=1;jettySize=18;whiteSpace=wrap;fontSize=13;strokeColor=#3a414a;strokeOpacity=100;strokeWidth=0.8;rounded=1;arcSize=12;curved=1;startArrow=none;endArrow=block;endFill=1;exitX=0.5;exitY=0;exitPerimeter=0;entryX=0.5;entryY=1;entryPerimeter=0;lucidId=cCudMo5atO8m;" edge="1" parent="1" source="5xeuYwTMl6cgXFdO7Lpt-17" target="5xeuYwTMl6cgXFdO7Lpt-55">
          <mxGeometry width="100" height="100" relative="1" as="geometry">
            <Array as="points">
              <mxPoint x="-854" y="2721" />
              <mxPoint x="-1530" y="2822" />
            </Array>
          </mxGeometry>
        </mxCell>
        <mxCell id="5xeuYwTMl6cgXFdO7Lpt-58" value="Список пользователей" style="html=1;overflow=block;blockSpacing=1;whiteSpace=wrap;shadow=1;fontSize=20.2;fontColor=#3a414a;spacing=9;strokeColor=none;fillOpacity=100;fillColor=#54c45e;strokeWidth=0;lucidId=CCudCnYAJBn7;" vertex="1" parent="1">
          <mxGeometry x="-1530" y="1005" width="180" height="180" as="geometry" />
        </mxCell>
        <mxCell id="5xeuYwTMl6cgXFdO7Lpt-59" value="" style="html=1;jettySize=18;whiteSpace=wrap;fontSize=13;strokeColor=#3a414a;strokeOpacity=100;strokeWidth=0.8;rounded=1;arcSize=12;curved=1;startArrow=none;endArrow=block;endFill=1;exitX=0.5;exitY=0;exitPerimeter=0;entryX=0.5;entryY=0;entryPerimeter=0;lucidId=RCudgZ~RNzsb;" edge="1" parent="1" source="5xeuYwTMl6cgXFdO7Lpt-21" target="5xeuYwTMl6cgXFdO7Lpt-58">
          <mxGeometry width="100" height="100" relative="1" as="geometry">
            <Array as="points">
              <mxPoint x="-856" y="917" />
              <mxPoint x="-1046" y="781" />
              <mxPoint x="-1265" y="781" />
              <mxPoint x="-1440" y="917" />
            </Array>
          </mxGeometry>
        </mxCell>
      </root>
    </mxGraphModel>
  </diagram>
</mxfile>
